<svg width="1170.000000" height="56.000000" viewBox="0 0 1170 56" fill="none" xmlns="http://www.w3.org/2000/svg" xmlns:xlink="http://www.w3.org/1999/xlink">
	<desc>
			Created with Pixso.
	</desc>
	<defs/>
	<path id="Rectangle 5" d="M1038 0L1055.26 0C1060.9 0 1064.77 5.67703 1062.71 10.9252L1046.99 50.9252C1045.79 53.9867 1042.84 56 1039.55 56L1038 56C1022.54 56 1010 43.464 1010 28C1010 12.536 1022.54 0 1038 0Z" fill="#FFFFFF" fill-opacity="0.070000" fill-rule="nonzero"/>
	<rect id="Rectangle 4" rx="28.000000" width="160.000000" height="56.000000" fill="#894189" fill-opacity="1.000000"/>
	<path id="Rectangle 5" d="M28 0L45.262 0C50.9006 0 54.7698 5.67703 52.708 10.9252L36.9937 50.9252C35.791 53.9867 32.8369 56 29.5476 56L28 56C12.5361 56 0 43.464 0 28C0 12.536 12.5361 0 28 0Z" fill="#FFFFFF" fill-opacity="0.070000" fill-rule="nonzero"/>
	<path id="Life" d="M36.618 35L45.4071 35L45.4071 33.1104L38.8153 33.1104L38.8153 20.4541L36.618 20.4541L36.618 35ZM47.7326 35L49.8566 35L49.8566 24.0918L47.7326 24.0918L47.7326 35ZM48.8068 22.4072C49.5392 22.4072 50.1496 21.8408 50.1496 21.1426C50.1496 20.4492 49.5392 19.873 48.8068 19.873C48.0695 19.873 47.464 20.4492 47.464 21.1426C47.464 21.8408 48.0695 22.4072 48.8068 22.4072ZM57.9066 24.0918L55.5531 24.0918L55.5531 23.1104C55.5531 22.1436 55.9535 21.6211 56.9886 21.6211C57.4281 21.6211 57.7406 21.7188 57.9408 21.7822L58.4388 20.0635C58.141 19.9512 57.5209 19.7705 56.6615 19.7705C54.9379 19.7705 53.4242 20.7812 53.4242 22.8271L53.4242 24.0918L51.7396 24.0918L51.7396 25.7959L53.4242 25.7959L53.4242 35L55.5531 35L55.5531 25.7959L57.9066 25.7959L57.9066 24.0918ZM64.3595 35.2197C66.7423 35.2197 68.422 34.0479 68.9054 32.2705L66.8985 31.9092C66.5128 32.9395 65.5899 33.4668 64.3839 33.4668C62.5626 33.4668 61.3419 32.2852 61.2833 30.1855L69.0421 30.1855L69.0421 29.4336C69.0421 25.4883 66.6837 23.9502 64.213 23.9502C61.171 23.9502 59.169 26.2646 59.169 29.6143C59.169 33.0029 61.1417 35.2197 64.3595 35.2197ZM61.2931 28.5938C61.3761 27.0459 62.4991 25.7031 64.2276 25.7031C65.8731 25.7031 66.9522 26.9238 66.962 28.5938L61.2931 28.5938Z" fill="#FFFFFF" fill-opacity="1.000000" fill-rule="evenodd"/>
	<path id="Vector" d="M88.5859 37.8951L88.5776 37.8916L88.552 37.8776C88.4019 37.795 88.2529 37.7102 88.1052 37.6233C86.3293 36.568 84.6697 35.3283 83.1538 33.9249C80.4692 31.4201 77.625 27.7031 77.625 23.1251C77.625 19.7091 80.4998 17.0001 83.9692 17.0001C84.9338 16.9954 85.887 17.2082 86.7581 17.6226C87.6289 18.0371 88.3953 18.6426 89 19.3941C89.6047 18.6425 90.3713 18.0369 91.2424 17.6224C92.1138 17.2079 93.0671 16.9952 94.0317 17.0001C97.5002 17.0001 100.375 19.7091 100.375 23.1251C100.375 27.7043 97.5308 31.4213 94.8462 33.9237C93.3303 35.3272 91.6707 36.5669 89.8948 37.6221C89.7471 37.7094 89.5981 37.7946 89.448 37.8776L89.4224 37.8916L89.4141 37.8962L89.4106 37.8974C89.2842 37.9644 89.1431 37.9995 89 37.9995C88.8569 37.9995 88.7158 37.9644 88.5894 37.8974L88.5859 37.8951Z" fill="#FFFFFF" fill-opacity="1.000000" fill-rule="nonzero"/>
	<path id="offline_bolt" d="M98.8933 35.9668L102.083 29.7335L99.8833 29.7335L99.8833 25.7001L96.5833 31.9334L98.8933 31.9334L98.8933 35.9668ZM99.3333 38.1668C98.3188 38.1668 97.3655 37.9743 96.4734 37.5893C95.5811 37.2043 94.8049 36.6818 94.145 36.0218C93.4851 35.3618 92.9624 34.5857 92.5774 33.6935C92.1924 32.8012 92 31.8479 92 30.8335C92 29.819 92.1924 28.8657 92.5774 27.9734C92.9624 27.0812 93.4851 26.3051 94.145 25.6451C94.8049 24.9851 95.5811 24.4626 96.4734 24.0776C97.3655 23.6926 98.3188 23.5001 99.3333 23.5001C100.348 23.5001 101.301 23.6926 102.193 24.0776C103.085 24.4626 103.862 24.9851 104.522 25.6451C105.182 26.3051 105.704 27.0812 106.089 27.9734C106.474 28.8657 106.667 29.819 106.667 30.8335C106.667 31.8479 106.474 32.8012 106.089 33.6935C105.704 34.5857 105.182 35.3618 104.522 36.0218C103.862 36.6818 103.085 37.2043 102.193 37.5893C101.301 37.9743 100.348 38.1668 99.3333 38.1668Z" fill="#894189" fill-opacity="1.000000" fill-rule="nonzero"/>
	<path id="offline_bolt" d="M99.2666 35.5001L102.167 29.8334L100.167 29.8334L100.167 26.1667L97.1667 31.8334L99.2666 31.8334L99.2666 35.5001ZM99.6667 37.5001C98.7444 37.5001 97.8777 37.3251 97.0667 36.9751C96.2556 36.6251 95.55 36.1501 94.95 35.5501C94.3501 34.9501 93.875 34.2445 93.5249 33.4334C93.175 32.6223 93 31.7556 93 30.8334C93 29.9112 93.175 29.0445 93.5249 28.2334C93.875 27.4223 94.3501 26.7167 94.95 26.1168C95.55 25.5168 96.2556 25.0417 97.0667 24.6917C97.8777 24.3417 98.7444 24.1667 99.6667 24.1667C100.589 24.1667 101.456 24.3417 102.267 24.6917C103.078 25.0417 103.783 25.5168 104.383 26.1168C104.983 26.7167 105.458 27.4223 105.808 28.2334C106.158 29.0445 106.333 29.9112 106.333 30.8334C106.333 31.7556 106.158 32.6223 105.808 33.4334C105.458 34.2445 104.983 34.9501 104.383 35.5501C103.783 36.1501 103.078 36.6251 102.267 36.9751C101.456 37.3251 100.589 37.5001 99.6667 37.5001Z" fill="#FFFFFF" fill-opacity="1.000000" fill-rule="nonzero"/>
	<path id="1" d="M121.859 20.4541L119.72 20.4541L116.093 22.8271L116.093 24.9268L119.569 22.6562L119.657 22.6562L119.657 35L121.859 35L121.859 20.4541Z" fill="#FFFFFF" fill-opacity="1.000000" fill-rule="evenodd"/>
	<rect id="Rectangle 4" x="1000.000000" rx="28.000000" width="170.000000" height="56.000000" fill="#360490" fill-opacity="1.000000"/>
	<path id="Score" d="M1042.88 24.2773L1044.99 24.2773C1044.93 21.9482 1042.87 20.2539 1039.91 20.2539C1037 20.2539 1034.76 21.9238 1034.76 24.4336C1034.76 26.4551 1036.21 27.6416 1038.55 28.2764L1040.27 28.7451C1041.82 29.1553 1043.02 29.668 1043.02 30.957C1043.02 32.3779 1041.66 33.3154 1039.8 33.3154C1038.11 33.3154 1036.7 32.5635 1036.57 30.9814L1034.37 30.9814C1034.51 33.6133 1036.55 35.2393 1039.81 35.2393C1043.23 35.2393 1045.19 33.4424 1045.19 30.9814C1045.19 28.3594 1042.86 27.3438 1041.01 26.8896L1039.59 26.5186C1038.45 26.2305 1036.94 25.6982 1036.95 24.3018C1036.95 23.0664 1038.08 22.1533 1039.87 22.1533C1041.54 22.1533 1042.72 22.9346 1042.88 24.2773ZM1052.24 35.2197C1054.82 35.2197 1056.49 33.6719 1056.72 31.5479L1054.65 31.5479C1054.39 32.7295 1053.47 33.4229 1052.25 33.4229C1050.45 33.4229 1049.3 31.9238 1049.3 29.5459C1049.3 27.207 1050.48 25.7373 1052.25 25.7373C1053.6 25.7373 1054.42 26.5918 1054.65 27.6123L1056.72 27.6123C1056.49 25.4102 1054.7 23.9502 1052.22 23.9502C1049.14 23.9502 1047.15 26.2646 1047.15 29.5947C1047.15 32.8857 1049.07 35.2197 1052.24 35.2197ZM1063.59 35.2197C1066.67 35.2197 1068.68 32.9688 1068.68 29.5947C1068.68 26.2012 1066.67 23.9502 1063.59 23.9502C1060.52 23.9502 1058.51 26.2012 1058.51 29.5947C1058.51 32.9688 1060.52 35.2197 1063.59 35.2197ZM1063.6 33.4375C1061.59 33.4375 1060.65 31.6846 1060.65 29.5898C1060.65 27.5 1061.59 25.7227 1063.6 25.7227C1065.6 25.7227 1066.54 27.5 1066.54 29.5898C1066.54 31.6846 1065.6 33.4375 1063.6 33.4375ZM1071.04 35L1073.17 35L1073.17 28.3398C1073.17 26.9092 1074.27 25.8789 1075.78 25.8789C1076.22 25.8789 1076.71 25.957 1076.88 26.0107L1076.88 23.9795C1076.67 23.9502 1076.25 23.9258 1075.98 23.9258C1074.7 23.9258 1073.61 24.6533 1073.21 25.8252L1073.1 25.8252L1073.1 24.0918L1071.04 24.0918L1071.04 35ZM1083.03 35.2197C1085.42 35.2197 1087.1 34.0479 1087.58 32.2705L1085.57 31.9092C1085.19 32.9395 1084.26 33.4668 1083.06 33.4668C1081.24 33.4668 1080.02 32.2852 1079.96 30.1855L1087.72 30.1855L1087.72 29.4336C1087.72 25.4883 1085.36 23.9502 1082.89 23.9502C1079.84 23.9502 1077.84 26.2646 1077.84 29.6143C1077.84 33.0029 1079.82 35.2197 1083.03 35.2197ZM1079.97 28.5938C1080.05 27.0459 1081.17 25.7031 1082.9 25.7031C1084.55 25.7031 1085.63 26.9238 1085.64 28.5938L1079.97 28.5938Z" fill="#FFFFFF" fill-opacity="1.000000" fill-rule="evenodd"/>
	<path id="monetization_on" d="M1106.63 34.9945L1108.48 34.9945L1108.48 33.6714C1109.37 33.5126 1110.13 33.1686 1110.76 32.6393C1111.4 32.1101 1111.71 31.325 1111.71 30.2842C1111.71 29.5432 1111.5 28.864 1111.08 28.2466C1110.65 27.6291 1109.81 27.091 1108.54 26.6324C1107.48 26.2795 1106.75 25.9708 1106.34 25.7062C1105.94 25.4415 1105.73 25.0799 1105.73 24.6212C1105.73 24.1625 1105.9 23.8009 1106.22 23.5362C1106.55 23.2716 1107.02 23.1393 1107.64 23.1393C1108.2 23.1393 1108.64 23.276 1108.96 23.5495C1109.28 23.8229 1109.51 24.1625 1109.65 24.5683L1111.34 23.8802C1111.15 23.2628 1110.79 22.7247 1110.27 22.2661C1109.75 21.8073 1109.17 21.5515 1108.54 21.4986L1108.54 20.1755L1106.69 20.1755L1106.69 21.4986C1105.8 21.6927 1105.12 22.0808 1104.62 22.663C1104.13 23.2451 1103.88 23.8979 1103.88 24.6212C1103.88 25.4503 1104.12 26.1207 1104.61 26.6324C1105.09 27.144 1105.86 27.585 1106.9 27.9555C1108.01 28.3612 1108.78 28.7229 1109.21 29.0404C1109.64 29.358 1109.86 29.7726 1109.86 30.2842C1109.86 30.8664 1109.65 31.2942 1109.24 31.5676C1108.82 31.8411 1108.33 31.9778 1107.74 31.9778C1107.16 31.9778 1106.65 31.7969 1106.2 31.4353C1105.75 31.0736 1105.42 30.5312 1105.2 29.8079L1103.46 30.4959C1103.7 31.3427 1104.09 32.0263 1104.61 32.5467C1105.13 33.0671 1105.8 33.4244 1106.63 33.6184L1106.63 34.9945ZM1107.58 38.17C1106.12 38.17 1104.74 37.8922 1103.46 37.3364C1102.17 36.7807 1101.05 36.0266 1100.1 35.0739C1099.14 34.1212 1098.39 33.001 1097.83 31.7132C1097.28 30.4253 1097 29.0493 1097 27.585C1097 26.1207 1097.28 24.7447 1097.83 23.4568C1098.39 22.169 1099.14 21.0488 1100.1 20.0961C1101.05 19.1435 1102.17 18.3893 1103.46 17.8336C1104.74 17.2779 1106.12 17 1107.58 17C1109.05 17 1110.43 17.2779 1111.71 17.8336C1113 18.3893 1114.12 19.1435 1115.07 20.0961C1116.03 21.0488 1116.78 22.169 1117.34 23.4568C1117.89 24.7447 1118.17 26.1207 1118.17 27.585C1118.17 29.0493 1117.89 30.4253 1117.34 31.7132C1116.78 33.001 1116.03 34.1212 1115.07 35.0739C1114.12 36.0266 1113 36.7807 1111.71 37.3364C1110.43 37.8922 1109.05 38.17 1107.58 38.17Z" fill="#FFFFFF" fill-opacity="1.000000" fill-rule="nonzero"/>
	<path id="1" d="M1133.36 20.4541L1131.22 20.4541L1127.6 22.8271L1127.6 24.9268L1131.07 22.6562L1131.16 22.6562L1131.16 35L1133.36 35L1133.36 20.4541Z" fill="#FFFFFF" fill-opacity="1.000000" fill-rule="evenodd"/>
</svg>
